# xmcd CD database file
#
# Track frame offsets:
#	182
#	13662
#	27360
#	48557
#	61785
#	76280
#	91490
#	110117
#	123730
#	143220
#
# Disc length: 2111 seconds
#
# Revision: 3
# Processed by: cddbd v1.5.2PL0 Copyright (c) Steve Scherf et al.
# Submitted via: CDex 1.79
#
DISCID=88083d0a
DTITLE=Jim Lauderdale - Planet Of Love
DYEAR=1991
DGENRE=Country
TTITLE0=Heaven's Flame
TTITLE1=Maybe
TTITLE2=Wake Up Screaming
TTITLE3=I Wasn't Fooling Around
TTITLE4=Bless Her Heart
TTITLE5=Where The Sidewalk Ends
TTITLE6=Planet Of Love
TTITLE7=The King Of Broken Hearts
TTITLE8=What You Don't Know
TTITLE9=My Last Request
EXTD=YEAR: 1991
EXTT0=
EXTT1=
EXTT2=
EXTT3=
EXTT4=
EXTT5=
EXTT6=
EXTT7=
EXTT8=
EXTT9=
PLAYORDER=
